#!OML:ASF I:\salsa\salsa 7_09\Patient 1\Session 1\dancerfemale.ASF
:FULLY-SPECIFIED
:DEGREES
1682
root 4.92308 15.4818 3.38899 -899.22 -278.738 -902.608
lowerback 5.60953 4.05453 5.45988
upperback -6.71745 6.12312 -0.650664
thorax -9.67471 2.61497 -4.56771
lowerneck 0.274516 15.5343 2.31645
upperneck 5.32837 20.6968 2.12744
head 1.62803 10.4349 0.581401
rclavicle -2.88238e-014 -9.34288e-015
rhumerus -22.973 0.4579 -83.2301
rradius 100.359
rwrist -14.9488
rhand -6.43263 56.4407
rfingers 7.12502
rthumb 19.4164 27.3901
lclavicle -2.88238e-014 -9.34288e-015
lhumerus -14.8194 23.6152 73.4396
lradius 114.65
lwrist -23.121
lhand -45.1876 56.4738
lfingers 7.12502
lthumb -17.9642 85.6641
rfemur -23.4406 -11.4534 11.8128
rtibia 71.7299
rfoot 10.0285 1.31117
rtoes -12.3166
lfemur -29.92 9.2841 -36.9393
ltibia 44.0931
lfoot -27.4484 21.6923
ltoes 5.64629
1683
root 5.07987 15.4169 3.34222 -905.496 -284.424 -908.407
lowerback 6.64224 4.32057 4.63654
upperback -6.70294 6.37968 -1.42709
thorax -10.2367 2.73602 -5.07821
lowerneck 0.446292 14.9511 1.4687
upperneck 5.25054 19.9393 2.17809
head 1.48166 10.047 0.663597
rclavicle -8.44835e-015 -1.72943e-014
rhumerus -21.3064 4.0888 -85.5182
rradius 101.902
rwrist -15.131
rhand -6.56817 57.4171
rfingers 7.12502
rthumb 19.2861 28.3534
lclavicle -8.44835e-015 -1.72943e-014
lhumerus -12.2251 20.0368 74.8263
lradius 116.661
lwrist -25.2461
lhand -44.4087 55.178
lfingers 7.12502
lthumb -17.2146 84.4355
rfemur -26.2723 -10.9065 10.0995
rtibia 75.6923
rfoot 9.11639 2.47029
rtoes -14.8166
lfemur -27.417 6.73293 -38.8179
ltibia 43.7786
lfoot -26.7411 19.4386
ltoes 4.29079
1684
root 5.22594 15.3499 3.31739 -904.247 -290.347 -907.117
lowerback 7.26306 4.64634 5.18771
upperback -6.85988 6.88891 -1.97295
thorax -10.603 2.89833 -6.11679
lowerneck 0.59796 13.9815 0.435636
upperneck 5.23103 18.6615 2.33667
head 1.34086 9.39992 0.807526
rclavicle 2.39784e-014 2.56432e-014
rhumerus -20.0385 7.67513 -87.8743
rradius 103.039
rwrist -15.3568
rhand -5.82685 59.1454
rfingers 7.12502
rthumb 19.9988 30.1546
lclavicle 2.39784e-014 2.56432e-014
lhumerus -9.00165 15.9404 75.9547
lradius 118.396
lwrist -26.1677
lhand -43.0564 55.4858
lfingers 7.12502
lthumb -15.9127 84.8521
rfemur -29.4076 -9.01995 10.1942
rtibia 78.3228
rfoot 8.08111 2.55369
rtoes -15.7611
lfemur -25.8721 3.6893 -39.2181
ltibia 44.1906
lfoot -26.2625 16.9692
ltoes 3.3755
1685
root 5.36782 15.3217 3.32159 -902.578 -296.819 -905.562
lowerback 7.78708 4.9082 5.98052
upperback -7.03864 7.36127 -2.40092
thorax -10.9137 3.02814 -7.16046
lowerneck 0.738831 12.7346 -1.03084
upperneck 5.24573 17.0057 2.70382
head 1.1799 8.5611 1.08521
rclavicle 6.42323e-014 1.42628e-014
rhumerus -18.9882 12.4341 -89.6078
rradius 103.926
rwrist -16.5572
rhand -4.71504 61.6286
rfingers 7.12502
rthumb 21.0672 32.753
lclavicle 6.42323e-014 1.42628e-014
lhumerus -5.67203 12.0183 76.9558
lradius 119.766
lwrist -26.246
lhand -42.5464 55.868
lfingers 7.12502
lthumb -15.4215 85.2728
rfemur -32.159 -6.79083 10.6628
rtibia 79.5651
rfoot 6.84991 1.41366
rtoes -16.9157
lfemur -24.9241 0.586751 -39.1108
ltibia 45.1246
lfoot -25.287 14.362
ltoes 1.01745
1686
root 5.53923 15.2305 3.34935 -901.627 -303.488 -904.715
lowerback 8.11079 5.24714 6.67627
upperback -7.19525 7.92239 -2.8449
thorax -11.0545 3.21759 -8.16088
lowerneck 1.17929 11.2207 -2.49572
upperneck 5.33191 14.9971 2.95307
head 1.0426 7.54624 1.34189
rclavicle 8.75895e-015 1.09083e-014
rhumerus -18.428 16.2366 -91.9916
rradius 104.412
rwrist -17.0879
rhand -4.3602 60.3466
rfingers 7.12502
rthumb 21.408 31.5094
lclavicle 8.75895e-015 1.09083e-014
lhumerus -2.03441 8.3439 77.741
lradius 120.739
lwrist -25.6601
lhand -42.4531 52.3931
lfingers 7.12502
lthumb -15.3316 81.8047
rfemur -34.687 -4.48134 10.6376
rtibia 80.2319
rfoot 4.56999 -0.727859
rtoes -13.4496
lfemur -24.2994 -2.70471 -38.9798
ltibia 46.6342
lfoot -24.4958 11.669
ltoes -0.857728
1687
root 5.73711 15.1909 3.38338 -900.835 -310.604 -903.705
lowerback 7.90447 5.60626 7.27951
upperback -6.87105 8.43911 -3.02433
thorax -10.3639 3.47237 -8.68419
lowerneck 1.90519 9.49249 -3.83768
upperneck 4.98076 12.6938 2.65298
head 0.809478 6.37536 1.41517
rclavicle 1.83217e-013 4.42296e-014
rhumerus -18.0771 21.3936 -93.7065
rradius 105.074
rwrist -17.2142
rhand -6.03228 59.9438
rfingers 7.12502
rthumb 19.8013 30.9324
lclavicle 1.83217e-013 4.42296e-014
lhumerus 2.89938 5.54997 78.2561
lradius 121.104
lwrist -25.1066
lhand -41.1872 53.9698
lfingers 7.12502
lthumb -14.112 83.4706
rfemur -36.2726 -2.12417 10.7726
rtibia 79.5363
rfoot 2.06861 -2.34314
rtoes -13.7144
lfemur -23.212 -6.33329 -38.3934
ltibia 47.8658
lfoot -23.9013 8.87637
ltoes -2.68611
